<mxfile host="Electron" modified="2024-07-13T02:34:48.013Z" agent="Mozilla/5.0 (Macintosh; Intel Mac OS X 10_15_7) AppleWebKit/537.36 (KHTML, like Gecko) draw.io/24.6.4 Chrome/124.0.6367.207 Electron/30.0.6 Safari/537.36" etag="nDSWNvOKdeSiHsbERXsX" version="24.6.4" type="device">
  <diagram name="第 1 页" id="J7acS5IHD6j4yJCdt472">
    <mxGraphModel dx="1314" dy="928" grid="1" gridSize="10" guides="1" tooltips="1" connect="1" arrows="1" fold="1" page="1" pageScale="1" pageWidth="827" pageHeight="1169" math="0" shadow="0">
      <root>
        <mxCell id="0" />
        <mxCell id="1" parent="0" />
        <mxCell id="H3AxN2qbj72OFUyfWe34-1" value="&lt;p&gt;切断阀是工业过程控制中常见的一种阀门，用于迅速切断管道内的流体流动，确保系统的安全和控制。根据不同的驱动方式和控制要求，切断阀可以分为多种类型，其中一种是气动切断阀。气动切断阀利用压缩空气作为驱动力，通过气动执行机构实现阀门的开启和关闭。&lt;/p&gt;&lt;h3&gt;气动切断阀的工作原理&lt;/h3&gt;&lt;p&gt;气动切断阀通常由气动执行机构和阀体两部分组成。气动执行机构是阀门的驱动部分，通过控制压缩空气的进出，实现执行机构的动作，从而带动阀杆和阀芯的运动，达到开启或关闭阀门的目的。&lt;/p&gt;&lt;p&gt;气动切断阀的工作原理可以简要描述如下：&lt;/p&gt;&lt;ol&gt;&lt;li&gt;&lt;strong&gt;气源供应&lt;/strong&gt;：压缩空气通过管道进入气动执行机构。&lt;/li&gt;&lt;li&gt;&lt;strong&gt;气动执行机构&lt;/strong&gt;：执行机构内的活塞或隔膜在压缩空气的作用下产生直线或旋转运动。&lt;/li&gt;&lt;li&gt;&lt;strong&gt;阀杆运动&lt;/strong&gt;：执行机构的运动通过连接机构传递到阀杆，阀杆带动阀芯移动。&lt;/li&gt;&lt;li&gt;&lt;strong&gt;阀门开关&lt;/strong&gt;：阀芯的移动实现阀门的开启或关闭，控制流体的流动。&lt;/li&gt;&lt;/ol&gt;&lt;h3&gt;气关型切断阀的定义&lt;/h3&gt;&lt;p&gt;“气关型”是气动切断阀的一种类型，指的是在失去气源或控制信号的情况下，阀门自动关闭，确保管道内流体的安全切断。这种设计通常用于需要在紧急情况下迅速切断流体的工况，例如化工、石油、天然气等高风险行业。&lt;/p&gt;&lt;p&gt;气关型切断阀的主要特点包括：&lt;/p&gt;&lt;ul&gt;&lt;li&gt;&lt;strong&gt;安全性高&lt;/strong&gt;：在气源故障或控制系统失灵时，阀门能够自动关闭，防止流体泄漏或危险发生。&lt;/li&gt;&lt;li&gt;&lt;strong&gt;快速响应&lt;/strong&gt;：阀门能够迅速响应控制信号，实现快速关闭，保障系统安全。&lt;/li&gt;&lt;li&gt;&lt;strong&gt;可靠性强&lt;/strong&gt;：设计结构简单，使用寿命长，维护方便。&lt;/li&gt;&lt;/ul&gt;&lt;h3&gt;气关型切断阀的应用&lt;/h3&gt;&lt;p&gt;气关型切断阀广泛应用于以下领域：&lt;/p&gt;&lt;ol&gt;&lt;li&gt;&lt;strong&gt;石油和天然气工业&lt;/strong&gt;：用于管道、储罐、反应器等设备的安全保护，防止泄漏和爆炸。&lt;/li&gt;&lt;li&gt;&lt;strong&gt;化工行业&lt;/strong&gt;：在生产过程中用于控制有毒、有害、易燃、易爆等危险介质的流动，确保生产安全。&lt;/li&gt;&lt;li&gt;&lt;strong&gt;电力行业&lt;/strong&gt;：用于锅炉、汽轮机、冷凝器等设备的保护和控制。&lt;/li&gt;&lt;li&gt;&lt;strong&gt;水处理系统&lt;/strong&gt;：用于污水处理、自来水供应等系统的紧急关闭，防止污染和泄漏。&lt;/li&gt;&lt;/ol&gt;&lt;h3&gt;气动切断阀的维护和保养&lt;/h3&gt;&lt;p&gt;为了确保气动切断阀的正常运行和延长使用寿命，定期的维护和保养是必不可少的。以下是一些常见的维护保养措施：&lt;/p&gt;&lt;ol&gt;&lt;li&gt;&lt;strong&gt;定期检查&lt;/strong&gt;：定期检查气动执行机构和阀体的各个部件，确保没有损坏或磨损。&lt;/li&gt;&lt;li&gt;&lt;strong&gt;清洁维护&lt;/strong&gt;：保持阀门和执行机构的清洁，防止灰尘和杂质进入影响正常工作。&lt;/li&gt;&lt;li&gt;&lt;strong&gt;润滑保养&lt;/strong&gt;：定期对阀杆、轴承等运动部件进行润滑，减少磨损和阻力。&lt;/li&gt;&lt;li&gt;&lt;strong&gt;气源管理&lt;/strong&gt;：确保压缩空气的质量和压力稳定，防止杂质和水分进入执行机构。&lt;/li&gt;&lt;li&gt;&lt;strong&gt;功能测试&lt;/strong&gt;：定期进行功能测试，确保阀门的开启和关闭动作正常。&lt;/li&gt;&lt;/ol&gt;&lt;h3&gt;结语&lt;/h3&gt;&lt;p&gt;气动切断阀，特别是气关型切断阀，在工业过程中起到了至关重要的作用。它们不仅能够提高系统的自动化水平，还能在紧急情况下提供可靠的安全保障。通过合理的设计和定期的维护保养，气动切断阀能够长期稳定运行，为工业生产的安全和效率提供有力的支持。&lt;/p&gt;&lt;p&gt;通过对气动切断阀的了解，我们可以更好地选择和应用合适的阀门，提升工业系统的安全性和可靠性。在实际应用中，还需要根据具体的工况和需求，进行详细的选型和配置，确保阀门的性能和效果达到最佳。&lt;/p&gt;" style="text;whiteSpace=wrap;html=1;" vertex="1" parent="1">
          <mxGeometry x="30" y="20" width="560" height="870" as="geometry" />
        </mxCell>
      </root>
    </mxGraphModel>
  </diagram>
</mxfile>
